<?xml version="1.0" standalone="no"?>
<!DOCTYPE svg PUBLIC "-//W3C//DTD SVG 20010904//EN"
 "http://www.w3.org/TR/2001/REC-SVG-20010904/DTD/svg10.dtd">
<svg version="1.0" xmlns="http://www.w3.org/2000/svg"
 width="200.000000pt" height="200.000000pt" viewBox="0 0 200.000000 200.000000"
 preserveAspectRatio="xMidYMid meet">
<metadata>
Created by potrace 1.11, written by Peter Selinger 2001-2013
</metadata>
<g transform="translate(0.000000,200.000000) scale(0.100000,-0.100000)"
fill="#000000" stroke="none">
<path d="M1158 1616 c-25 -7 -58 -20 -73 -30 -27 -17 -28 -17 -54 8 -32 31
-46 34 -31 7 5 -11 14 -32 20 -46 l10 -26 -32 22 -33 22 26 -27 26 -28 -22
-61 c-42 -119 -16 -226 81 -323 57 -58 81 -72 189 -108 8 -3 34 -126 38 -183
1 -20 17 -4 17 17 0 11 5 52 11 93 9 59 14 73 28 72 31 -2 38 -14 47 -77 4
-35 9 -67 10 -73 1 -5 3 -21 4 -35 2 -21 3 -20 11 10 4 19 13 67 19 107 l12
72 41 6 c134 21 208 56 272 127 48 53 115 147 115 160 0 4 -27 -9 -61 -29 -48
-29 -71 -36 -109 -36 -98 0 -231 98 -303 223 -20 36 -45 74 -55 86 -47 56
-116 72 -204 50z m12 -68 c32 -34 23 -45 -10 -13 -16 16 -30 30 -30 32 0 10
22 0 40 -19z m325 -314 c130 -65 143 -92 55 -118 -103 -31 -253 4 -283 66 -20
40 -6 83 31 96 39 13 117 -5 197 -44z"/>
<path d="M626 1480 c-40 -13 -63 -36 -106 -110 -48 -82 -110 -144 -177 -175
-69 -33 -114 -32 -180 5 -29 17 -53 27 -53 24 0 -14 91 -133 125 -163 44 -38
66 -48 164 -72 81 -20 84 -21 86 -47 1 -9 5 -41 9 -69 8 -55 25 -81 27 -41 1
31 4 55 13 101 5 27 12 37 26 37 22 0 26 -12 35 -98 4 -34 10 -64 14 -67 4 -2
8 1 8 8 0 7 6 44 12 83 l12 72 57 21 c68 24 139 87 173 151 29 57 32 167 5
219 -17 32 -17 33 6 58 l23 26 -29 -18 -28 -19 22 45 23 44 -24 -20 c-13 -11
-27 -24 -30 -28 -3 -5 -24 1 -46 13 -46 24 -125 34 -167 20z m124 -55 c-13
-14 -26 -22 -29 -19 -3 3 5 14 18 25 33 27 39 24 11 -6z m-109 -251 c6 -8 12
-25 12 -39 0 -86 -195 -132 -292 -68 l-24 15 54 35 c65 42 89 52 154 68 55 13
78 10 96 -11z"/>
<path d="M1265 799 c-4 -6 1 -16 11 -24 17 -12 20 -11 26 8 l6 22 1 -22 c1
-16 6 -21 16 -16 14 5 14 8 -1 24 -19 21 -49 25 -59 8z"/>
<path d="M1387 801 c-17 -6 -17 -8 3 -26 17 -15 23 -16 29 -6 7 11 9 11 13 0
3 -8 9 -11 13 -7 8 8 -15 42 -30 44 -5 1 -18 -1 -28 -5z"/>
<path d="M601 777 c-6 -6 -11 -15 -11 -19 0 -13 47 -9 59 6 9 11 6 15 -13 18
-14 3 -30 0 -35 -5z"/>
<path d="M500 770 c0 -5 0 -13 0 -17 0 -10 19 -9 42 1 10 5 15 12 12 17 -7 12
-54 11 -54 -1z"/>
<path d="M607 692 c-21 -3 -26 -7 -18 -16 27 -33 36 -231 12 -260 -15 -18 -47
-21 -56 -6 -12 19 -8 72 6 81 10 6 8 9 -11 10 -14 0 -39 2 -56 4 -25 3 -34 -2
-47 -24 -24 -40 -48 -59 -87 -65 -46 -7 -60 3 -64 47 -3 33 -1 37 20 37 16 0
28 -8 34 -22 6 -17 9 -6 9 45 1 43 -3 66 -9 62 -5 -3 -10 -12 -10 -20 0 -12
-21 -25 -41 -25 -17 0 2 74 23 93 29 24 57 21 90 -10 l28 -27 0 37 c0 20 -3
38 -7 38 -5 1 -60 2 -124 3 -111 2 -115 1 -95 -15 20 -16 21 -27 21 -153 l-1
-136 110 6 c61 3 112 6 113 7 1 2 4 21 7 42 2 22 5 45 6 50 0 6 10 -14 21 -43
23 -60 47 -77 96 -69 82 14 94 42 97 238 3 105 7 99 -67 91z"/>
<path d="M761 661 c-40 -40 -71 -112 -71 -165 0 -72 87 -144 159 -132 36 6
111 52 118 72 2 6 -8 14 -23 17 -22 4 -34 -2 -59 -29 -38 -39 -63 -37 -90 8
-35 60 -16 152 42 198 26 20 27 20 46 2 10 -11 20 -31 20 -46 1 -14 3 -26 4
-26 1 0 16 24 33 53 18 28 38 56 44 60 6 4 -5 5 -25 1 -25 -4 -47 -1 -67 10
-52 27 -87 21 -131 -23z"/>
<path d="M1278 591 c-45 -39 -53 -81 -27 -137 21 -45 52 -64 103 -64 35 0 79
28 96 61 9 17 7 19 -17 19 -20 0 -31 -7 -38 -22 -13 -29 -56 -35 -77 -11 -20
22 -28 90 -15 121 21 46 92 39 92 -10 -1 -23 2 -25 40 -20 22 2 41 5 42 6 1 1
-13 19 -31 40 -27 33 -39 39 -82 43 -46 5 -54 2 -86 -26z"/>
<path d="M1042 559 c-45 -17 -66 -85 -40 -132 29 -55 79 -76 139 -58 46 14 69
44 69 91 0 80 -84 130 -168 99z m95 -41 c21 -49 -6 -128 -43 -128 -8 0 -21 11
-30 25 -18 28 -14 85 7 111 18 22 54 17 66 -8z"/>
<path d="M1529 548 c-69 -42 -38 -163 47 -184 28 -7 98 12 114 31 21 25 24 92
6 120 -35 53 -109 68 -167 33z m108 -30 c20 -48 -6 -128 -42 -128 -7 0 -20 9
-30 20 -20 22 -17 89 5 115 19 23 55 18 67 -7z"/>
</g>
</svg>
